# xmcd
#
# Track frame offsets: 
#        150
#        26301
#        65131
#        90307
#        114701
#        135330
#        157450
#        164015
#        187566
#        202197
#
# Disc length: 2898 seconds
#
# Revision: 1
# Processed by: cddbd v1.5.2PL0 Copyright (c) Steve Scherf et al.
# Submitted via: ExactAudioCopy v0.99pb5
#
DISCID=870b500a
DTITLE=B.B. King - B.B. King - Playlist and Plus [CD2]
DYEAR=2008
DGENRE=Blues
TTITLE0=Watch Yourself 
TTITLE1=Why I Sing The Blues
TTITLE2=So Excited
TTITLE3=The Thrill Is Gone
TTITLE4=Hummingbird
TTITLE5=Chains And Things
TTITLE6=Nobody Loves Me But My Mother
TTITLE7=Ghetto Woman
TTITLE8=Ain't Nobody Home
TTITLE9=I Got Some Help I Don't Need
EXTD=
EXTT0=
EXTT1=
EXTT2=
EXTT3=
EXTT4=
EXTT5=
EXTT6=
EXTT7=
EXTT8=
EXTT9=
PLAYORDER=
